<?xml version="1.0" encoding="utf-8"?>
<!-- Generator: Adobe Illustrator 24.0.1, SVG Export Plug-In . SVG Version: 6.00 Build 0)  -->
<svg version="1.1" id="Layer_1" xmlns="http://www.w3.org/2000/svg" xmlns:xlink="http://www.w3.org/1999/xlink" x="0px" y="0px"
	 viewBox="0 0 128 128" style="enable-background:new 0 0 128 128;" xml:space="preserve">
<style type="text/css">
	.st0{fill:#385245;}
</style>
<path class="st0" d="M38.1,77.5l-11.4,4.9l10.6,4.5l12.2-4.5C49.5,82.4,38.1,77.5,38.1,77.5z M21,83.6l-0.4,22l16.7,7.3V90.1
	C37.2,90.1,21,83.6,21,83.6z M55.2,83.6l-15.1,5.7v21.6l15.1-6.1C55.2,104.8,55.2,83.6,55.2,83.6z M73.2,15l-11.5,4.9l10.6,4.5
	l12.2-4.5C84.6,19.9,73.2,15,73.2,15z M57.3,21.5v22l14.2,4.1l0.5-20C72,27.7,57.3,21.5,57.3,21.5z M89.1,22.8l-13.5,5.7v21.7
	L89.1,44C89.1,44,89.1,22.8,89.1,22.8z M19.3,46L7.9,50.9l10.6,4.5l12.2-4.5C30.7,50.9,19.3,46,19.3,46z M2.2,52.2l-0.4,22l16.7,7.3
	V58.7L2.2,52.2z M36.4,52.2l-15.1,5.7v21.6l15.1-6.1V52.2z M56,45.2l-11.4,4.9l10.6,4.5l12.2-4.5C67.4,50.1,56,45.2,56,45.2z
	 M38.9,51.4l-0.4,22l16.7,7.3V57.9C55.2,57.9,38.9,51.4,38.9,51.4z M73.2,51.4l-15.1,5.7v21.6l15.1-6.1
	C73.2,72.5,73.2,51.4,73.2,51.4z M109.1,15l-11.4,4.9l10.6,4.5l12.2-4.5C120.5,19.9,109.1,15,109.1,15z M91.9,21.2l-0.4,22l16.7,7.3
	V27.7C108.2,27.7,91.9,21.2,91.9,21.2z M126.2,21.2l-15.1,5.7v21.6l15.1-6.1C126.2,42.3,126.2,21.2,126.2,21.2z"/>
</svg>
