<?xml version="1.0" encoding="utf-8"?>
<!-- Generator: Adobe Illustrator 24.0.1, SVG Export Plug-In . SVG Version: 6.00 Build 0)  -->
<svg version="1.1" id="Layer_1" xmlns="http://www.w3.org/2000/svg" xmlns:xlink="http://www.w3.org/1999/xlink" x="0px" y="0px"
	 viewBox="0 0 128 128" style="enable-background:new 0 0 128 128;" xml:space="preserve">
<style type="text/css">
	.st0{fill:#385245;}
</style>
<path class="st0" d="M64,0C28.7,0,0,28.7,0,64s28.7,64,64,64s64-28.7,64-64S99.3,0,64,0z M13.2,64L64,114.8
	C35.9,114.8,13.2,92.1,13.2,64z M75.4,113.5l-60.9-61C19.7,30,39.9,13.2,64,13.2c16.6,0,31.3,7.9,40.5,20.2L97,40.6
	c-7.3-10.4-19.3-17.1-33-17.1c-17.6,0-32.5,11.2-38.1,26.8C33.1,57,75.4,98.8,78.1,102c12.7-4.7,22.3-15.5,25.4-28.9H81.9v-9.4
	l33,0.2C114.8,88.2,98,108.4,75.4,113.5z"/>
</svg>
