<?xml version="1.0" encoding="utf-8"?>
<!-- Generator: Adobe Illustrator 25.3.1, SVG Export Plug-In . SVG Version: 6.00 Build 0)  -->
<svg version="1.1" id="Layer_1" xmlns="http://www.w3.org/2000/svg" xmlns:xlink="http://www.w3.org/1999/xlink" x="0px" y="0px"
	 viewBox="0 0 128 128" enable-background="new 0 0 128 128" xml:space="preserve">
<path fill-rule="evenodd" clip-rule="evenodd" fill="#385245" d="M47.955,69h15.371c-2.646-9-5.252-17.32-7.816-25.776
	C53.022,51.71,50.498,60,47.955,69z M124.112,1H2.873C0.687,1,1,1.476,1,3.585v121.394C1,127.086,0.687,127,2.719,127h121.547
	c2.031,0,2.734,0.086,2.734-2.022V3.739C127,1.476,126.298,1,124.112,1z M77.298,96c-1.637,0-3.28-0.133-4.909-0.016
	c-1.175,0.088-1.568-0.406-1.881-1.426c-1.514-4.931-3.123-9.86-4.638-14.79c-0.305-0.992-0.741-1.354-1.816-1.341
	c-5.523,0.064-11.049,0.058-16.573-0.007c-1.163-0.014-1.698,0.296-2.03,1.45c-1.406,4.904-2.944,9.768-4.365,14.667
	c-0.308,1.062-0.776,1.433-1.904,1.404c-3.318-0.083-6.641-0.032-10.274-0.032c0.959-3.045,1.829-5.861,2.729-8.665
	c5.514-17.2,11.047-34.4,16.521-51.611c0.382-1.198,0.913-1.567,2.143-1.54c3.886,0.086,7.775,0.022,11.663,0
	c0.727-0.005,1.223,0.038,1.489,0.864c6.505,20.116,13.033,40.356,19.555,60.47C83.036,95.518,83.018,96,83.033,96L77.298,96
	L77.298,96z M98,96H86V51h12V96z M91.65,44.929c-3.665-0.005-6.289-2.528-6.314-6.07c-0.024-3.532,2.707-6.159,6.406-6.163
	c3.728-0.004,6.355,2.537,6.384,6.171C98.152,42.412,95.459,44.935,91.65,44.929z"/>
</svg>
