<?xml version="1.0" encoding="utf-8"?>
<!-- Generator: Adobe Illustrator 25.3.1, SVG Export Plug-In . SVG Version: 6.00 Build 0)  -->
<svg version="1.1" id="Layer_1" xmlns="http://www.w3.org/2000/svg" xmlns:xlink="http://www.w3.org/1999/xlink" x="0px" y="0px"
	 viewBox="0 0 128 128" style="enable-background:new 0 0 128 128;" xml:space="preserve">
<style type="text/css">
	.st0{fill:#385245;stroke:#FFFFFF;stroke-miterlimit:10;}
</style>
<path class="st0" d="M29.6,12.9L64,9.2l34.4,3.6L125,48.3l-61,70.5L3,48.3L29.6,12.9z"/>
<path class="st0" d="M27.7,48.3L64,118.8L3,48.3H27.7z M100.3,48.3L64,118.8l61-70.5H100.3z"/>
<path class="st0" d="M27.7,48.3h72.6L64,118.8L27.7,48.3z"/>
<path class="st0" d="M64,9.2l-34.4,3.6l-1.9,35.4L64,9.2z M64,9.2l34.4,3.6l1.9,35.4L64,9.2z"/>
<path class="st0" d="M125,48.3L98.4,12.9l1.9,35.4H125z"/>
<path class="st0" d="M64,9.2L27.7,48.3h72.6L64,9.2z"/>
<path class="st0" d="M3,48.3l26.6-35.4l-1.9,35.4H3z"/>
</svg>
