<?xml version="1.0" encoding="utf-8"?>
<!-- Generator: Adobe Illustrator 25.3.1, SVG Export Plug-In . SVG Version: 6.00 Build 0)  -->
<svg version="1.1" id="Layer_1" xmlns="http://www.w3.org/2000/svg" xmlns:xlink="http://www.w3.org/1999/xlink" x="0px" y="0px"
	 viewBox="0 0 128 128" enable-background="new 0 0 128 128" xml:space="preserve">
<path id="original" fill="#395346" d="M64.415,0.484c-34.888,0-63.27,28.384-63.27,63.271s28.382,63.269,63.27,63.27
	c34.887,0,63.268-28.384,63.268-63.27S99.302,0.484,64.415,0.484z M67.748,120.657v-10.988L95.19,95.769
	c0.659-0.334,1.072-1.008,1.072-1.746v-6.291c2.564-0.887,4.279-3.443,3.99-6.257c-0.339-3.284-3.275-5.672-6.56-5.333
	c-3.284,0.339-5.672,3.275-5.332,6.559c0.246,2.387,1.864,4.294,3.99,5.031v5.089l-24.601,12.46V95.059l10.844-5.017
	c0.691-0.318,1.133-1.012,1.135-1.773l0.021-17.026l20.069-11.275c0.617-0.346,0.999-0.999,0.999-1.706v-4.749
	c2.564-0.886,4.278-3.442,3.989-6.258c-0.339-3.286-3.276-5.673-6.559-5.332c-3.285,0.338-5.671,3.275-5.333,6.56
	c0.247,2.385,1.864,4.293,3.989,5.031v3.605L76.837,68.392c-0.617,0.348-0.999,0.998-0.999,1.705l-0.022,16.92l-8.067,3.729V53.954
	l16.884-8.257c0.671-0.325,1.097-1.008,1.097-1.755v-6.291c2.563-0.887,4.28-3.441,3.99-6.259c-0.339-3.283-3.276-5.671-6.559-5.331
	c-3.285,0.338-5.673,3.274-5.333,6.561c0.245,2.385,1.863,4.289,3.989,5.027v5.071l-14.067,6.876V28.353
	c2.563-0.887,4.28-3.444,3.989-6.259c-0.337-3.284-3.275-5.671-6.56-5.333c-3.283,0.34-5.67,3.275-5.331,6.561
	c0.245,2.384,1.863,4.29,3.988,5.029v34.645l-9.944-5.225V42.033c0-0.608-0.283-1.183-0.767-1.551l-6.802-5.209
	c0.37-0.891,0.53-1.881,0.424-2.907c-0.339-3.284-3.277-5.669-6.56-5.331c-3.284,0.339-5.672,3.275-5.333,6.559
	c0.338,3.285,3.275,5.672,6.561,5.335c0.835-0.088,1.609-0.344,2.298-0.728l6.265,4.801v15.952c0,0.728,0.404,1.395,1.048,1.733
	l12.81,6.729V80.14l-21.372-9.884l0.293-7.742c0.029-0.762-0.386-1.469-1.063-1.816l-9.796-5.025c0.147-0.63,0.2-1.292,0.13-1.971
	c-0.339-3.284-3.275-5.672-6.559-5.332c-3.284,0.339-5.671,3.275-5.333,6.559c0.339,3.283,3.275,5.67,6.56,5.331
	c1.178-0.119,2.237-0.58,3.1-1.268l9.003,4.617l-0.295,7.801c-0.03,0.788,0.418,1.52,1.134,1.85l24.198,11.191v9.084
	c-0.024,0.17-0.021,0.343,0,0.516v26.693c-2.06-0.021-4.091-0.154-6.094-0.388V97.413c0-0.765-0.445-1.458-1.139-1.777
	l-15.183-6.987c0.038-0.391,0.039-0.79-0.004-1.196c-0.339-3.284-3.275-5.672-6.559-5.331c-3.284,0.338-5.671,3.273-5.333,6.558
	c0.339,3.283,3.275,5.671,6.56,5.332c1.466-0.152,2.75-0.821,3.696-1.81l14.047,6.465v21.092c-26.39-4.977-46.42-28.19-46.42-56.005
	c0-31.434,25.574-57.009,57.009-57.009c31.434,0,57.007,25.575,57.007,57.009C121.422,94.069,97.636,118.924,67.748,120.657z"/>
</svg>
