<?xml version="1.0" encoding="utf-8"?>
<!-- Generator: Adobe Illustrator 25.3.1, SVG Export Plug-In . SVG Version: 6.00 Build 0)  -->
<svg version="1.1" id="Layer_1" xmlns="http://www.w3.org/2000/svg" xmlns:xlink="http://www.w3.org/1999/xlink" x="0px" y="0px"
	 viewBox="0 0 128 128" style="enable-background:new 0 0 128 128;" xml:space="preserve">
<style type="text/css">
	.st0{fill:#385245;}
</style>
<path class="st0" d="M64,25.6c-17.1,0-27.7,8.5-32,25.6c6.4-8.5,13.9-11.7,22.4-9.6c4.9,1.2,8.4,4.7,12.2,8.7
	C72.9,56.6,80.1,64,96,64c17.1,0,27.7-8.5,32-25.6c-6.4,8.5-13.9,11.7-22.4,9.6c-4.9-1.2-8.3-4.7-12.2-8.7
	C87.1,33,79.9,25.6,64,25.6z M32,64C14.9,64,4.3,72.5,0,89.6c6.4-8.5,13.9-11.7,22.4-9.6c4.9,1.2,8.4,4.7,12.2,8.7
	c6.3,6.4,13.5,13.7,29.4,13.7c17.1,0,27.7-8.5,32-25.6c-6.4,8.5-13.9,11.7-22.4,9.6c-4.9-1.2-8.3-4.7-12.2-8.7
	C55.1,71.4,47.9,64,32,64z"/>
</svg>
