<?xml version="1.0" encoding="utf-8"?>
<!-- Generator: Adobe Illustrator 25.3.1, SVG Export Plug-In . SVG Version: 6.00 Build 0)  -->
<svg version="1.1" id="Layer_1" xmlns="http://www.w3.org/2000/svg" xmlns:xlink="http://www.w3.org/1999/xlink" x="0px" y="0px"
	 viewBox="0 0 128 128" enable-background="new 0 0 128 128" xml:space="preserve">
<g id="original">
	<rect x="23.081" y="46.847" fill="#FFFFFF" width="99.667" height="73.667"/>
	<path id="original_1_" fill="#395345" d="M1.915,63.754v62.5h62.5h62.5v-62.5v-62.5h-62.5h-62.5V63.754z M102.649,58.774
		c3.175,0.794,5.595,2.202,7.817,4.504c1.151,1.23,2.857,3.472,2.996,4.008c0.04,0.159-5.397,3.81-8.69,5.853
		c-0.119,0.079-0.595-0.437-1.131-1.23c-1.607-2.341-3.294-3.353-5.873-3.532c-3.79-0.258-6.23,1.726-6.21,5.04
		c0,0.972,0.139,1.548,0.536,2.341c0.833,1.726,2.381,2.758,7.242,4.861c8.948,3.849,12.778,6.389,15.159,10
		c2.659,4.028,3.254,10.456,1.448,15.238c-1.984,5.198-6.905,8.73-13.829,9.901c-2.143,0.377-7.222,0.317-9.524-0.099
		c-5.02-0.893-9.782-3.373-12.718-6.627c-1.151-1.27-3.393-4.583-3.254-4.821c0.06-0.079,0.575-0.397,1.151-0.734
		c0.556-0.317,2.659-1.528,4.643-2.679l3.591-2.083l0.754,1.111c1.052,1.607,3.353,3.81,4.742,4.544
		c3.988,2.103,9.464,1.806,12.163-0.615c1.151-1.052,1.627-2.143,1.627-3.75c0-1.448-0.179-2.083-0.933-3.175
		c-0.972-1.389-2.956-2.56-8.591-5c-6.448-2.778-9.226-4.504-11.766-7.242c-1.468-1.587-2.857-4.127-3.433-6.25
		c-0.476-1.766-0.595-6.19-0.218-7.976c1.329-6.23,6.032-10.575,12.817-11.865C95.367,58.08,100.486,58.238,102.649,58.774z
		 M73.303,63.992l0.04,5.119h-8.135h-8.135v23.115v23.115h-5.754h-5.754V92.227V69.111H37.43h-8.135v-5.02
		c0-2.778,0.06-5.099,0.139-5.159c0.06-0.079,9.96-0.119,21.964-0.099l21.845,0.06L73.303,63.992z"/>
</g>
</svg>
