<?xml version="1.0" encoding="utf-8"?>
<!-- Generator: Adobe Illustrator 25.3.1, SVG Export Plug-In . SVG Version: 6.00 Build 0)  -->
<svg version="1.1" id="Layer_1" xmlns="http://www.w3.org/2000/svg" xmlns:xlink="http://www.w3.org/1999/xlink" x="0px" y="0px"
	 viewBox="0 0 128 128" style="enable-background:new 0 0 128 128;" xml:space="preserve">
<style type="text/css">
	.st0{fill:#385245;}
</style>
<path class="st0" d="M3.7,45c0,0-3-2.2,0.6-5.1l8.5-7.6c0,0,2.4-2.6,5-0.3l78.2,59.3v28.4c0,0,0,4.5-5.8,4L3.7,45z"/>
<path class="st0" d="M23.8,63.4L3.7,81.7c0,0-2.1,1.5,0,4.3l9.4,8.5c0,0,2.2,2.4,5.5-0.3L39.9,78L23.8,63.4z"/>
<path class="st0" d="M59.2,63.5l37-28.3L95.9,6.9c0,0-1.6-6.2-6.8-3L39.9,48.9L59.2,63.5z"/>
<path class="st0" d="M90.1,123.8c2.1,2.2,4.7,1.5,4.7,1.5l28.8-14.2c3.7-2.5,3.2-5.6,3.2-5.6V20.5c0-3.7-3.8-5-3.8-5l-25-12.1
	c-5.5-3.4-9,0.6-9,0.6s4.6-3.3,6.8,3v112.3c0,0.8-0.2,1.5-0.5,2.2c-0.7,1.3-2.1,2.6-5.5,2.1L90.1,123.8z"/>
</svg>
