<?xml version="1.0" encoding="utf-8"?>
<!-- Generator: Adobe Illustrator 24.0.1, SVG Export Plug-In . SVG Version: 6.00 Build 0)  -->
<svg version="1.1" id="Layer_1" xmlns="http://www.w3.org/2000/svg" xmlns:xlink="http://www.w3.org/1999/xlink" x="0px" y="0px"
	 viewBox="0 0 100 68" style="enable-background:new 0 0 100 68;" xml:space="preserve">
<g>
	<path d="M9.9,2.4l16.1,40.4L42.4,2.4H52L25.9,65.1L0.3,2.4H9.9z"/>
	<path d="M97.8,5.5v10.4C92.7,11.7,87.5,9.5,82,9.5c-6,0-11,2.2-15.1,6.5c-4.1,4.3-6.2,9.5-6.2,15.7c0,6.1,2.1,11.3,6.2,15.5
		c4.1,4.2,9.2,6.3,15.2,6.3c3.1,0,5.7-0.5,7.9-1.5c1.2-0.5,2.5-1.2,3.8-2c1.3-0.9,2.7-1.9,4.1-3.1v10.6c-5,2.8-10.3,4.3-15.9,4.3
		c-8.3,0-15.4-2.9-21.3-8.7c-5.9-5.9-8.8-12.9-8.8-21.2c0-7.4,2.5-14.1,7.4-19.9C65.2,4.8,73,1.2,82.6,1.2
		C87.9,1.2,92.9,2.6,97.8,5.5z"/>
</g>
</svg>
